:SAMPLES-PER-SECOND 30
:FULLY-SPECIFIED
:DEGREES
169
root  -13.0499 40.8763 -6.90907 -20.4976 -81.5882 20.1848
RightUpLeg  -0.521872 -11.9993 -15.3041
RightLeg  2.17898 -7.83595 1.71584
RightFoot  3.24648 -0.964434 7.69842
RightToes  0.00048216 0.542163 -0.142577
Spine  2.22349 -0.498548 2.25498
Spine1  13.5232 0.0794937 -2.0541
HEad  -19.8915 -8.93058 2.27951
LeftShoulder1  8.36373 -12.4623 -45.6719
LeftArm  -11.7794 17.1602 -28.5764
LeftForeArm  33.6633 -29.5429 -4.56915
LeftHand  -0.25398 0.0180481 5.50724
RightShoulder  5.61179 9.32574 37.7082
RightArm  6.39375 -26.8949 27.4929
RightForeArm  6.97946 17.7267 5.8321
RightHand  -1.3126 3.51813 -17.317
LeftUpLeg  -0.975118 2.60882 -1.85901
LeftLeg  3.58067 5.38798 -3.93682
LeftFoot  -2.45548 -0.181698 2.54049
LeftToes  1.06246e-005 4.65855e-005 -8.18503e-006
170
root  -13.0175 40.8742 -6.8725 -22.5343 -82.4203 22.3278
RightUpLeg  -1.21344 -11.8097 -15.0699
RightLeg  2.56951 -7.29597 1.45847
RightFoot  3.31829 -0.944275 7.50238
RightToes  0.00048216 0.542163 -0.142577
Spine  2.46293 -0.647138 2.25085
Spine1  13.3189 -0.0115785 -2.29206
HEad  -20.3614 -9.3298 3.37131
LeftShoulder1  8.33183 -12.5756 -45.1592
LeftArm  -11.1494 16.7617 -29.0149
LeftForeArm  31.687 -27.6925 -4.26181
LeftHand  -0.25398 0.0180481 5.50724
RightShoulder  5.35905 9.0824 36.585
RightArm  7.39269 -28.4301 27.7692
RightForeArm  12.0053 16.5602 6.11258
RightHand  -1.13864 2.77268 -16.2789
LeftUpLeg  -1.09064 2.58101 -1.91245
LeftLeg  3.58999 6.27973 -3.86255
LeftFoot  -2.52059 -0.181833 2.55929
LeftToes  1.06246e-005 4.65855e-005 -8.18503e-006
171
root  -12.9807 40.8747 -6.85345 -25.1405 -83.4184 24.8612
RightUpLeg  -1.54747 -11.6069 -14.7819
RightLeg  2.54049 -6.59852 1.36185
RightFoot  3.52009 -0.928548 7.27437
RightToes  0.00048216 0.542163 -0.142577
Spine  2.69429 -0.677518 2.4297
Spine1  13.3985 0.0216667 -2.48817
HEad  -20.7145 -9.85048 4.45338
LeftShoulder1  8.31033 -12.6522 -44.8154
LeftArm  -9.96859 15.709 -29.1697
LeftForeArm  30.6995 -25.5304 -3.84517
LeftHand  -0.25398 0.0180481 5.50724
RightShoulder  5.31057 9.06669 36.2591
RightArm  1.9654 -28.7778 27.7124
RightForeArm  19.305 12.7709 6.67228
RightHand  -0.741876 1.64357 -12.4141
LeftUpLeg  -1.08793 2.70589 -1.79164
LeftLeg  3.75313 7.16627 -3.83609
LeftFoot  -2.65153 -0.18346 2.62367
LeftToes  1.06246e-005 4.65855e-005 -8.18503e-006
172
root  -12.9459 40.8696 -6.86176 -29.6035 -84.545 29.181
RightUpLeg  -1.7223 -11.4579 -14.5309
RightLeg  2.31874 -5.5959 1.40153
RightFoot  3.66976 -0.922335 7.15275
RightToes  0.00048216 0.542163 -0.142577
Spine  3.00052 -0.626555 2.37116
Spine1  13.4605 0.0157694 -2.2706
HEad  -20.6015 -10.0922 4.86423
LeftShoulder1  8.28791 -12.6338 -44.7426
LeftArm  -8.80555 14.6859 -29.0684
LeftForeArm  31.0054 -23.8148 -3.48576
LeftHand  -0.25398 0.0180481 5.50724
RightShoulder  5.36026 9.16178 36.3321
RightArm  -5.34782 -28.4929 27.7905
RightForeArm  21.5969 9.07534 6.09803
RightHand  -0.572546 0.754142 -10.9771
LeftUpLeg  -1.03219 2.99952 -1.54484
LeftLeg  4.01326 8.04067 -3.91647
LeftFoot  -2.85345 -0.182826 2.69574
LeftToes  1.06246e-005 4.65855e-005 -8.18503e-006
173
root  -12.9156 40.862 -6.88799 -39.0692 -85.7942 38.5645
RightUpLeg  -2.01849 -11.3833 -14.3383
RightLeg  2.11621 -4.21998 1.51249
RightFoot  3.76834 -0.922537 7.10904
RightToes  0.00048216 0.542163 -0.142577
Spine  3.39749 -0.525219 2.13758
Spine1  13.2489 0.0400894 -1.99367
HEad  -20.0388 -9.82254 4.74725
LeftShoulder1  8.24558 -12.5732 -44.6788
LeftArm  -8.15242 14.2675 -28.9012
LeftForeArm  31.9802 -22.8367 -3.31132
LeftHand  -0.25398 0.0180481 5.50724
RightShoulder  5.35191 9.09876 36.4741
RightArm  -11.3619 -27.926 28.5716
RightForeArm  16.56 7.43759 4.74126
RightHand  -0.741033 0.998335 -13.4504
LeftUpLeg  -0.95955 3.30405 -1.3192
LeftLeg  4.17175 9.15641 -4.01743
LeftFoot  -3.042 -0.178523 2.71338
LeftToes  1.06246e-005 4.65855e-005 -8.18503e-006
